<svg id="Logo" xmlns="http://www.w3.org/2000/svg" viewBox="0 0 396.21 101.57">
    <defs>
        <style>.cls-1{fill:#ca0538;}</style>
    </defs>
    <path class="cls-1"
          d="M353.33,114.41c0,9.54-3.76,13-13.16,13.17-9,.13-16.26.13-23.38.13-6.86,0-22.58-.13-22.58-.13-9.27,0-12.22-4-12.22-10.21v-6.15c1.43,0,5.84-.14,10.4-.14,5,0,10.27.14,11.9.14,0,.31,0,1,0,1.32.26,2.36,1.6,2.72,4.12,2.72,0,0,11.55.14,9.53.14-1.74,0,9-.14,9-.14,3.09,0,4.16-1.21,4.3-4.3,0,0,.13-3.67.13-4.48s-.13-4-.13-4c-.14-2.82-.94-3.76-3.77-3.76H294.75c-9.4,0-13-3.62-13.17-13.16,0,0-.13-6.71-.13-7.25,0-2.15.13-7,.13-7,.14-9.81,3.77-13.17,13.17-13.17,0,0,15.18-.14,22.17-.14s24.32.14,24.32.14c8.06,0,11.55,4.84,11.55,11.55v5c-3.09,0-7.68.14-11.92.14-4,0-7.72-.14-9.57-.14,0-.3,0-1,0-1.28-.13-2.21-.84-2.8-3.48-2.91,0,0-6.72-.28-10.74-.28-2.83,0-10.49.28-10.49.28-2.95.13-3.62.8-3.76,3.62,0,0-.13,2.86-.13,4.21s.13,3.51.13,3.51c.14,3,1.48,4,4.3,4l33.06.27c9.4.13,13.16,3.75,13.16,13.16v15.16Zm-83,0c0,9.41-3.76,13.17-13.17,13.17,0,0-16.26.13-23.65.13s-23.37-.13-23.37-.13c-9.27,0-13-3.76-13-13.17,0,0-.14-27.41-.14-23s.14-20.15.14-20.15c0-9.41,3.76-13.17,13-13.17,0,0,18-.14,23.37-.14,5.65,0,23.65.14,23.65.14,9.41,0,13.17,3.76,13.17,13.17,0,0,.14,15.45.14,20.15,0,5-.14,23-.14,23M168.86,74.51c0-.39,0-1.18-.06-1.53-.24-2.07-1.26-2.54-3.57-2.54H155.7c-2.83,0-3.77.67-3.77,3.62v49.76c0,3-.94,3.76-3.76,3.76,0,0-5.78.13-7.93.13s-7.12-.13-7.12-.13c-3,0-3.76-.94-3.76-3.76V61.88c0-3,.94-3.76,3.76-3.76,0,0,13.84-.14,24-.14,9.81,0,21.9.14,21.9.14,10,0,12.36,3.09,12.36,11.82v4.57H168.86Zm-51.59,39.9c0,9.41-3.76,13.17-13.17,13.17,0,0-18.54.13-25,.13-5.77,0-23.78-.13-23.78-.13-9.4,0-13.16-3.76-13.16-13.17V29.9c0-2.82,1.07-3.76,3.76-3.76H61c2.83,0,3.76.94,3.76,3.76V54.22c0,2.82,1,3.76,3.77,3.76l35.6.14c9.54,0,13.17,3.76,13.17,13.17,0,0,.13,14.1.13,20.15s-.13,23-.13,23m321-21.24c0,5-2.15,5.91-5.64,5.91H389.88c-2.82,0-3.77.81-3.77,3.76v7.42c0,2.95,1.62,4.29,4.58,4.29h21.76c14.45,0,25.79-.14,25.79-.14,0,9.41-3.76,13.17-13,13.17,0,0-17.06.13-24.85.13-6.45,0-23.11-.13-23.11-.13-9.41,0-13.17-3.63-13.17-13.17,0,0-.14-20.82-.14-22.3,0-2.82.14-20.82.14-20.82,0-9.41,3.76-13.17,13.17-13.17,0,0,17.19-.14,23.51-.14,6.85,0,24.45.14,24.45.14,9.27,0,12.9,3.63,13,13.17,0,0,.14,5.65.14,10.87,0,4.84-.14,11.15-.14,11.15ZM401.29,70.3c-5.5,0-11.41.14-11.41.14-2.82,0-3.77.8-3.77,3.62v8.8c0,2.82.95,3.76,3.77,3.76,0,0,10.07.14,11.41.14,4.17,0,8.33,0,12.5-.14,2.82,0,3.63-.94,3.76-3.76,0,0,.14-2.44.14-4.19,0-2-.14-4.61-.14-4.61-.13-2.82-.67-3.62-3.76-3.62,0,0-7.39-.14-12.5-.14M247.73,74.06c0-2.82-.94-3.62-3.76-3.62,0,0-6.32-.14-9.95-.14s-10.75.14-10.75.14c-2.81,0-3.75.93-3.75,3.62,0,0-.14,12.54-.14,17.38,0,5.37.14,20.06.14,20.06,0,3,.94,3.76,3.75,3.76,0,0,6.85.14,10.08.14,3.5,0,10.62-.14,10.62-.14,2.82,0,3.76-.94,3.76-3.76,0,0,.13-19.39.13-20.06,0-3-.13-11.42-.13-16.53Zm-152.9,0c0-2.82-.94-3.62-3.76-3.62,0,0-7.39-.14-10.75-.14-2.82,0-11.82.14-11.82.14-2.82,0-3.77.93-3.77,3.62,0,0-.13,13.35-.13,17.38,0,4.56.13,20.06.13,20.06,0,3,1,3.76,3.77,3.76,0,0,8.87.14,10.75.14s8.19-.14,11.82-.14c2.82,0,3.76-.94,3.76-3.76,0,0,.14-16.3.14-20.06,0-3.23,0-11.42-.14-16.53Z"
          transform="translate(-42.17 -26.14)"/>
</svg>